<?xml version="1.0" encoding="UTF-8"?><svg id="Major" xmlns="http://www.w3.org/2000/svg" viewBox="0 0 1190.55 1683.78"><defs><style>.cls-1{fill:#1e1e1e;}.cls-1,.cls-2{stroke-width:0px;}.cls-2{fill:#f5c8df;}</style></defs><g id="Poster_var1"><path class="cls-1" d="M295.25,1496.8v-87.72h79.75v102.08c0,18.08-3.35,33.45-10.05,46.09-6.7,12.66-16,23.08-27.91,31.26-11.91,8.19-25.63,14.51-41.15,18.98-15.53,4.47-32.17,7.6-49.92,9.41-17.76,1.8-35.78,2.71-54.07,2.71-19.35,0-38.07-.91-56.14-2.71-18.08-1.81-34.82-4.95-50.24-9.41-15.42-4.47-28.87-10.79-40.35-18.98-11.48-8.18-20.47-18.61-26.96-31.26-6.49-12.65-9.73-28.02-9.73-46.09v-102.08h79.75v87.72c0,17.02,4.15,29.99,12.44,38.92,8.29,8.93,20.15,15.05,35.57,18.34,15.42,3.3,33.97,4.94,55.67,4.94s39.34-1.64,54.87-4.94c15.52-3.29,27.48-9.41,35.89-18.34,8.4-8.93,12.6-21.9,12.6-38.92Z"/><path class="cls-1" d="M939.61,1552.62v-25.52h197.78v-31.9h-197.78v-25.52h241.8v-60.61h-210.49c15.43-14.98,28.33-33.11,38.24-53.92,20.81-43.75,28.51-98.16,22.86-161.72l-7.47.67-7.47.66c.07.75.13,1.5.19,2.25,5.03,59.88-2.25,110.91-21.66,151.69-11.65,24.49-27.77,44.91-47.47,60.37-9.84,7.74-20.57,14.23-32.08,19.38-17.48,7.81-36.36,12.52-56.2,14.1-4.21.33-8.46.53-12.75.59-21.15.27-43.24-2.89-65.78-9.48-9.46-2.77-18.85-6.1-28.12-9.98-34.97-14.62-68.37-37-98.34-65.95,4.68-6.64,8.91-13.6,12.67-20.86,7.62-14.68,13.35-30.58,17.07-47.49l-7.33-1.61-7.32-1.61c-.11.51-.23,1.03-.35,1.54-4.88,21.41-13.29,41-24.92,58.31-.18.29-.38.58-.59.87-1.42,2.1-2.89,4.17-4.44,6.21-1.49,2.02-3.05,4-4.67,5.95-9.75,11.85-21.19,22.39-34.21,31.44-32.61,22.67-73.2,34.49-114.28,33.38-1.65-.05-3.3-.11-4.94-.21-22.04-1.18-43.35-6.19-62.64-14.58-13.05-5.66-25.19-12.87-36.01-21.49-30.9-24.61-51.02-60.23-58.23-103.11-.08-.42-.15-.84-.22-1.27l-7.4,1.2-7.41,1.19c7.64,47.19,29.74,86.51,63.92,113.72,4.53,3.61,9.26,6.99,14.18,10.12v203.8h79.75v-104.15l102.08,104.15h95.7l102.08-104.67v104.67h79.75v-155.1c4.27-.05,8.53-.23,12.75-.54v155.64h322.19v-60.61h-242.44ZM617.16,1564.22l-120.91-125.34c40.76-.83,80.58-13.48,113.09-36.08,13.77-9.57,25.92-20.67,36.34-33.11,29.8,28.47,62.67,50.52,96.41,65.48l-124.93,129.05Z"/><path class="cls-1" d="M653.69,478.28l-7.5-.25-7.45-1.82c.76-31.99-7.71-60.28-24.54-81.89-15.21-19.52-36.88-32.95-61.04-37.8-23.23-4.67-47.31-1.1-67.81,10.05-3.66,1.99-7.19,4.21-10.58,6.65-2.04,1.47-4.02,3.01-5.95,4.64-1.94,1.62-3.82,3.32-5.64,5.1-6.48,6.3-12.27,13.53-17.26,21.62-4.17,6.73-7.8,14.04-10.84,21.89l-7.31-1.79h-.04s-7.01-2.68-7.01-2.68c1.33-3.5,2.75-6.87,4.25-10.12,7.9-17.12,18.09-30.88,29.68-41.61-23.33-32.27-53.89-56.31-89.69-70.3-18.24-7.13-37.41-11.43-56.78-12.86-24.52-1.82-49.36.95-73.04,8.36-.6.19-1.2.38-1.8.57-9.71,3.15-19.08,7.05-28.05,11.65-7.61,3.91-14.93,8.31-21.9,13.19-19.89,13.89-36.95,31.56-50.04,52.13-26.15,41.08-36.56,93.26-30.14,150.98l-7.27,2.53-7.44.87c-7.21-61.85,3.92-118.02,32.19-162.44,10.54-16.56,23.47-31.38,38.26-44.07h-1.97L10.99,80.07h106.11l105.35,195.74,105.35-195.74h104.6l-115.65,192.76c18.31,2.01,36.38,6.4,53.67,13.16,38.28,14.96,70.94,40.54,95.89,74.8,27.68-19.67,60.9-24.78,89.8-18.98,27.68,5.56,52.51,20.94,69.92,43.29,19.29,24.76,28.85,56.98,27.66,93.18Z"/><path class="cls-1" d="M626.17,328.41c-54.69,0-98.71-4.83-132.07-14.49-33.36-9.65-57.63-23.95-72.8-42.89-15.18-18.94-22.76-42.45-22.76-70.55s7.58-51.61,22.76-70.55c15.17-18.94,39.44-33.23,72.8-42.89,33.36-9.65,77.38-14.49,132.07-14.49s98.7,4.83,132.07,14.49c33.36,9.66,57.62,23.96,72.8,42.89,15.17,18.94,22.76,42.46,22.76,70.55s-7.59,51.61-22.76,70.55c-15.18,18.94-39.45,33.24-72.8,42.89-33.36,9.65-77.38,14.49-132.07,14.49ZM626.17,256.92c25.83,0,48.16-1.56,66.97-4.7,18.81-3.13,33.36-8.78,43.64-16.93,10.28-8.15,15.43-19.75,15.43-34.8s-5.14-26.65-15.43-34.8c-10.29-8.15-24.83-13.79-43.64-16.93-18.81-3.13-41.14-4.7-66.97-4.7s-48.48,1.57-67.91,4.7c-19.44,3.14-34.62,8.78-45.53,16.93-10.91,8.15-16.37,19.75-16.37,34.8s5.46,26.66,16.37,34.8c10.91,8.15,26.08,13.8,45.53,16.93,19.44,3.14,42.08,4.7,67.91,4.7Z"/><path class="cls-1" d="M959.15,80.08v169.31h219.36v71.49h-313.42V80.08h94.06Z"/></g><path class="cls-1" d="M458.79,795.39c-25.19-33.89-38.59-70.31-38.78-105.31-.17-32.32,11.22-62.85,32.05-85.98,22.37-24.83,54.56-40.2,90.64-43.27,39.38-3.35,82.01,7.8,123.29,32.26l-7.65,12.9c-38.58-22.86-78.12-33.31-114.37-30.22-32.27,2.75-60.95,16.38-80.77,38.37-18.6,20.64-28.35,46.88-28.2,75.86.16,31.78,12.55,65.13,35.81,96.44l-12.04,8.95Z"/><path class="cls-1" d="M669.5,1131.38c-11.52,0-23.18-1.07-34.85-3.23-53.97-10-107.58-43.02-155.06-95.49l11.12-10.06c45.25,50.01,95.97,81.41,146.67,90.8,43.87,8.13,87.45-.52,122.72-24.35,32.34-21.86,55.76-54.94,65.94-93.14,11-41.26,6.04-85.19-14.34-127.04l13.49-6.57c21.99,45.14,27.29,92.68,15.35,137.48-11.12,41.7-36.7,77.82-72.04,101.71-29.12,19.68-63.38,29.9-99,29.9Z"/><path class="cls-1" d="M730.71,933.33l-12.19-8.74c21.33-29.77,33.51-60.28,35.24-88.22,1.57-25.38-5.41-47.4-20.18-63.67-15.61-17.2-38.57-26.55-66.39-27.05-31.26-.54-67.07,10.35-103.65,31.53l-7.52-12.98c37.97-21.99,75.56-33.57,108.89-33.57.85,0,1.69,0,2.54.02,32.06.57,58.77,11.62,77.23,31.96,17.55,19.34,25.87,45.16,24.05,74.68-1.9,30.76-15.04,63.97-38.02,96.04Z"/><path class="cls-1" d="M423.88,1199.45c-29.85,22.75-64.37,34.59-100.99,34.59-3.01,0-6.04-.08-9.08-.24-40.16-2.12-79.57-19.1-108.15-46.57-27.84-26.76-43.98-61.92-45.45-99.01-1.67-41.95,15.2-85.84,48.8-126.91l11.61,9.49c-31.24,38.2-46.94,78.59-45.43,116.83,1.32,33.2,15.83,64.73,40.87,88.79,26.01,25.01,61.93,40.46,98.54,42.4,26.98,1.43,66.57-3.65,104.81-34.95,1.23,5.38,2.73,10.57,4.47,15.58Z"/><path class="cls-1" d="M194.78,844.7c-34.86-36.63-56.93-79.8-63.81-124.84-6.54-42.82,1.48-84.79,22.59-118.19,20.79-32.89,52.87-55.94,92.8-66.66,44.17-11.86,95.39-8.41,152.26,10.25l-4.68,14.25c-54.04-17.74-102.39-21.11-143.69-10.01-36.22,9.73-65.27,30.54-84.01,60.19-19.18,30.34-26.43,68.67-20.44,107.91,6.42,42,27.11,82.37,59.85,116.77l-10.87,10.34Z"/><path class="cls-1" d="M392.67,949.47c-24.1,0-46.98-7.47-64.77-21.22-17.65-13.64-29.34-32.84-32.07-52.67-4.36-31.73,14.03-71.29,78.73-87.14l3.57,14.57c-24.9,6.1-44.13,16.62-55.59,30.41-9.75,11.72-13.85,25.6-11.85,40.13,4.28,31.17,37.4,62.45,85.34,60.88l.49,14.99c-1.28.04-2.57.06-3.85.06Z"/><path class="cls-1" d="M684.43,1182.57c-10.9,34.04-35.19,62.64-68.41,80.53-22.88,12.33-48.81,18.79-74.03,18.79-9.04,0-17.98-.83-26.67-2.52-31.28-6.08-57.14-22.44-74.79-47.32-6.95-9.79-12.5-20.68-16.65-32.6-1.74-5.01-3.24-10.2-4.47-15.58-4.32-18.62-5.64-39.42-3.94-62.25l14.96,1.12c-3.1,41.52,4.42,75.38,22.34,100.63,15.37,21.67,37.99,35.95,65.41,41.28,29.57,5.75,62.64.37,90.72-14.75,29.79-16.04,51.53-41.58,61.24-71.9l14.29,4.57Z"/><path class="cls-1" d="M888.39,991.03l-2.41-14.8c63.3-10.29,113.49-33.63,145.15-67.51,27.45-29.37,40.58-65.44,37.98-104.31-2.54-37.91-19.85-74.04-48.74-101.76-30.64-29.39-72.1-46.25-116.74-47.48l.41-14.99c48.37,1.33,93.37,19.68,126.71,51.65,31.6,30.31,50.54,69.93,53.32,111.58,2.84,42.5-12.07,83.54-41.99,115.56-33.94,36.32-87.09,61.24-153.7,72.07Z"/><path class="cls-1" d="M863.73,712.34l-10.4-10.81c37.73-36.27,61.21-74.92,67.88-111.76,5.71-31.5-1.13-61.55-19.26-84.62-17.84-22.71-44.96-37.25-76.35-40.94-34.4-4.05-70.39,5.13-104.08,26.54l-8.05-12.66c36.63-23.28,76.01-33.23,113.88-28.78,35.38,4.17,66.06,20.71,86.39,46.57,20.82,26.5,28.71,60.79,22.23,96.56-7.24,39.97-32.22,81.43-72.24,119.9Z"/><path class="cls-2" d="M644.69,1346.01c-.18.29-.38.58-.59.87-.15-.15-.3-.31-.44-.46l1.03-.41Z"/><path class="cls-1" d="M103.39,525.65l-7.45.87,7.27-2.53c.05.55.12,1.1.18,1.66Z"/><path class="cls-1" d="M435.08,426.47c-.12.28-.23.57-.34.86l-6.97-2.65,7.31,1.79Z"/><path class="cls-1" d="M646.19,478.03l-7.49-.25c.02-.53.03-1.05.04-1.57l7.45,1.82Z"/><path class="cls-1" d="M1029.19,1133.49l-1.25-14.95c57.67-4.83,96.84-26.79,107.48-60.25,10.53-33.1-8.3-72.99-51.64-109.44l9.65-11.48c48.23,40.56,68.74,86.29,56.28,125.47-12.57,39.55-56.51,65.3-120.53,70.66Z"/><path class="cls-1" d="M174.05,1322.48c-12.65,0-24.42-2.95-34.69-8.77-13.74-7.78-24.04-20.42-29.79-36.55-6.06-16.98-7.03-37.18-2.9-60.02l14.76,2.67c-6.93,38.33,2.3,67.8,25.32,80.84,25.31,14.33,62.24,5.57,94.1-22.32l9.88,11.29c-18.36,16.07-38.55,26.75-58.38,30.89-6.25,1.3-12.37,1.95-18.3,1.95Z"/><path class="cls-1" d="M1083.55,637.32l-13.38-6.77c16.04-31.68,23.43-61.77,21.97-89.42-1.29-24.52-9.41-46.11-24.13-64.17-30.2-37.06-84.59-52.7-135.33-38.91l-3.93-14.47c27.68-7.52,56.61-7.37,83.65.44,27.23,7.87,50.48,22.9,67.25,43.47,16.53,20.29,26.03,45.48,27.48,72.86,1.6,30.3-6.33,62.93-23.57,96.98Z"/><path class="cls-1" d="M124.37,971.56c-36.07-33.39-52.71-75.2-45.68-114.69,6.7-37.61,34.17-69.01,75.36-86.14l5.76,13.85c-36.38,15.13-60.56,42.44-66.35,74.92-6.12,34.37,8.86,71.2,41.1,101.05l-10.19,11.01Z"/><path class="cls-1" d="M856.28,1215.73c-15.66,0-32.13-4.69-49.01-13.95l7.22-13.15c29.28,16.07,56.8,16.17,75.49.28,20.22-17.2,25.6-49.94,13.72-83.42l14.14-5.02c7.01,19.76,8.92,39.59,5.54,57.37-3.33,17.45-11.51,32.15-23.68,42.49-11.21,9.53-25.33,14.84-40.83,15.36-.86.03-1.72.04-2.58.04Z"/></svg>