<?xml version="1.0" encoding="UTF-8"?><svg id="Major" xmlns="http://www.w3.org/2000/svg" viewBox="0 0 1190.55 1683.78"><defs><style>.cls-1{fill:#1e1e1e;}.cls-1,.cls-2{stroke-width:0px;}.cls-2{fill:#f5c8df;}</style></defs><g id="Poster_var1"><path class="cls-1" d="M295.25,1496.8v-87.72h79.75v102.08c0,18.08-3.35,33.45-10.05,46.09-6.7,12.66-16,23.08-27.91,31.26-11.91,8.19-25.63,14.51-41.15,18.98-15.53,4.47-32.17,7.6-49.92,9.41-17.76,1.8-35.78,2.71-54.07,2.71-19.35,0-38.07-.91-56.14-2.71-18.08-1.81-34.83-4.95-50.24-9.41-15.42-4.47-28.87-10.79-40.35-18.98-11.48-8.18-20.47-18.61-26.96-31.26-6.49-12.65-9.73-28.02-9.73-46.09v-102.08h79.75v87.72c0,17.02,4.15,29.99,12.44,38.92,8.29,8.93,20.15,15.05,35.57,18.34,15.42,3.3,33.97,4.94,55.67,4.94s39.34-1.64,54.87-4.94c15.52-3.29,27.48-9.41,35.89-18.34,8.4-8.93,12.6-21.9,12.6-38.92Z"/><path class="cls-1" d="M878.32,1285.84c-.33,13.61-1.43,26.49-3.29,38.62-.77,5.05-1.68,9.98-2.72,14.77-5.97,27.68-16.31,51.03-30.94,69.84h5.74v204.16h-79.75v-104.67l-102.08,104.67h-95.7l-102.08-104.15v104.15h-79.75v-204.16h79.75l149.65,155.15,92.26-95.29c-4.95.27-9.97.4-15.06.4-3.08,0-6.18-.04-9.32-.14-52.19-1.65-108.87-16.99-163.93-44.35-59.39-29.52-114.87-71.53-165.02-124.94l-5.02,60.93-14.95-1.23,7.01-85.11,85.11,7-1.23,14.95-58.06-4.78c48.41,51.14,101.81,91.4,158.83,119.75,53.14,26.41,107.69,41.21,157.74,42.78,13.85.44,27.17-.14,39.82-1.71,38.18-4.7,70.25-18.31,92.55-39.68,1.27-1.22,2.51-2.46,3.72-3.73,18.89-19.83,29.87-45.31,35.79-72.11,1.08-4.88,1.99-9.8,2.75-14.74,8.49-55.16-1.79-112.49-6.88-135.57l6.86-1.51.47-.1,7.32-1.62c4.35,19.71,11.48,59.23,10.41,102.42Z"/><path class="cls-1" d="M939.61,1527.1v25.52h242.44v60.61h-322.19v-204.16h321.55v60.61h-241.8v25.52h197.78v31.9h-197.78Z"/><path class="cls-1" d="M156.98,320.88L10.99,80.08h106.1l124.54,231.4h-38.38l124.54-231.4h104.6l-144.48,240.8h-130.94Z"/><path class="cls-1" d="M831.04,129.93c-15.18-18.94-39.45-33.24-72.81-42.9-33.36-9.65-77.38-14.48-132.06-14.48s-98.71,4.83-132.07,14.48c-33.36,9.66-57.63,23.96-72.81,42.9-15.18,18.94-22.76,42.45-22.76,70.54s7.58,51.62,22.76,70.55c4.77,5.95,10.43,11.44,16.99,16.47-41.62,6.45-82.68,19.36-122.35,38.49-40.24,19.42-76.95,45.2-109.12,76.64-26.19,25.6-49.51,55.06-69.32,87.57-36.67,60.17-49.4,111.26-50.73,116.88l7.3,1.73h.01l8.45-2.77c7.99-29.41,57.88-188.36,219.93-266.54,43.93-21.19,89.59-34.48,135.76-39.5,1.33-.15,2.65-.29,3.97-.42,42.09-4.16,83.57-1.44,123.31,8.06,21.26,5.09,41.5,12.11,59.95,20.56,38.52,17.64,69.21,41.54,84.96,67.24l-59.04,1.58.4,15,85.37-2.29-2.29-85.37-14.99.4,1.61,60.1c-11.71-17.88-29.88-35.12-53.15-50.28-4.06-2.65-8.25-5.21-12.56-7.68,32.39-2.11,59.88-6.43,82.48-12.97,33.36-9.66,57.63-23.95,72.81-42.9,15.17-18.93,22.76-42.45,22.76-70.55s-7.59-51.6-22.76-70.54ZM736.78,235.28c-10.28,8.15-24.83,13.8-43.64,16.93-18.81,3.14-41.14,4.7-66.97,4.7s-48.48-1.56-67.92-4.7c-19.44-3.13-34.61-8.78-45.53-16.93-10.91-8.15-16.36-19.76-16.36-34.81s5.45-26.64,16.36-34.8c10.92-8.15,26.09-13.79,45.53-16.93,19.44-3.13,42.08-4.7,67.92-4.7s48.16,1.57,66.97,4.7c18.81,3.14,33.36,8.78,43.64,16.93,10.29,8.16,15.43,19.75,15.43,34.8s-5.14,26.66-15.43,34.81Z"/><path class="cls-1" d="M959.15,80.08v169.31h219.36v71.49h-313.42V80.08h94.06Z"/></g><path class="cls-1" d="M860.14,1322.22c-.76,4.94-1.67,9.86-2.75,14.74-92.55-15.09-179.74-48.71-254.58-98.45-14.43-9.58-28.41-19.77-41.87-30.54-49.17-39.35-90.45-86.09-119.36-135.17-13.63-23.14-24.61-46.95-32.73-70.86,4.49-2.28,9.02-4.5,13.6-6.64,7.84,23.54,18.59,47.04,32.05,69.89,24.47,41.53,58.15,81.4,98.14,116.29-.28,4.12-.5,8.22-.67,12.3l14.98.63c.01-.28.02-.57.04-.85,1.1.9,2.22,1.8,3.33,2.69,17.01,13.61,34.85,26.26,53.42,37.92,70.27,44.16,150.98,74.17,236.4,88.05Z"/><path class="cls-2" d="M286.49,481.88c44.68,5.09,87.81,12.26,129.22,21.48l-28.47,9.33c-33.11-6.59-67.29-11.9-102.45-15.9l1.7-14.91Z"/><path class="cls-1" d="M102.52,606.03c-.65,2.39-1.03,3.92-1.16,4.49l-7.29-1.72,8.45-2.77Z"/><path class="cls-1" d="M935.92,1024.54l-8.39,12.44c-7.04-4.75-129.6-85.63-293.12-87.57-5.62-.07-11.29-.04-17,.09-58.89,1.29-122.61,13.17-187.82,42.51-2.39,1.08-4.77,2.17-7.14,3.29-4.58,2.14-9.11,4.36-13.6,6.64-43.76,22.2-83.71,50.71-119.01,84.98-33.21,32.25-62.53,69.76-87.14,111.5-36.44,61.83-53.19,116.86-59.37,141.04-.87,3.37-1.52,6.14-2,8.24l-14.63-3.32c.58-2.55,1.41-6.04,2.54-10.37,6.74-25.8,24.03-81.29,60.54-143.21,25.29-42.89,55.44-81.46,89.61-114.64,36.98-35.9,78.91-65.68,124.88-88.71,4.53-2.28,9.11-4.49,13.72-6.62,1.81-.85,3.62-1.68,5.44-2.5,70.37-31.66,139.03-43.57,202.06-43.89,5.76-.04,11.48.03,17.14.19,164.1,4.56,286.17,85.11,293.29,89.91Z"/><path class="cls-1" d="M935.74,693.54c-27.84,9.71-57.56,22.47-87.78,39.26-4.47,2.48-8.94,5.05-13.43,7.72-33.21,19.69-66.78,44.38-98.93,75.32-36.65,35.27-67.72,74.99-92.97,118.79-2.81,4.87-5.55,9.8-8.22,14.78-16.16,30.16-29.66,62.16-40.43,95.88-15.58,48.76-24.9,100.01-26.99,148.27-.02.28-.03.57-.04.85l-14.98-.63c.17-4.08.39-8.18.67-12.3,3.01-46.17,12.3-94.57,27.05-140.75,10.2-31.94,22.79-62.38,37.72-91.23,2.62-5.07,5.31-10.09,8.08-15.06,26.66-47.91,59.99-91.19,99.71-129.41,31.98-30.77,65.32-55.52,98.36-75.43,4.48-2.7,8.95-5.31,13.42-7.83,34.14-19.3,67.71-33.57,98.87-44.12-.19,5.3-.22,10.6-.11,15.89Z"/><path class="cls-1" d="M1054.17,665.94c-26.61,3.19-62.65,9.63-103.49,22.62-.02-5.27.11-10.54.39-15.82,39.9-12.32,75.08-18.55,101.32-21.69l1.78,14.89Z"/><path class="cls-1" d="M61.16,1039.58v-15c188.03,0,311.14-72.16,381.3-132.69,80.95-69.83,137.54-164.61,151.38-253.54,8.86-56.93-1.16-116.81-29.77-178l13.59-6.36c29.9,63.94,40.33,126.74,31.01,186.66-6.75,43.39-23.68,89.53-48.95,133.42-27.67,48.07-63.83,91.53-107.45,129.16-72.09,62.2-198.46,136.33-391.1,136.33Z"/><path class="cls-1" d="M958.44,1330.94l-.25,15c-28.95-.47-57.65-2.73-85.88-6.71,1.04-4.79,1.95-9.72,2.72-14.77,27.42,3.84,55.29,6.02,83.41,6.48Z"/><path class="cls-1" d="M552.64,1181.48c4.7,4.1,9.48,8.13,14.35,12.08-.02.28-.03.57-.04.85l-14.98-.63c.17-4.08.39-8.18.67-12.3Z"/><path class="cls-1" d="M617.41,570.7c5.47,2.55,10.9,5.15,16.29,7.8-5.19,3.01-10.32,6.07-15.39,9.21-2.15,1.33-4.28,2.67-6.41,4.02-5.06,3.22-10.05,6.5-14.97,9.85-24.96,16.97-48.13,35.57-69.17,55.61-40.78,38.86-72,81.39-92.79,126.41-20.96,45.41-30.24,91.13-27.59,135.94.01.2.02.4.03.6.34,5.52.86,11.08,1.56,16.66,1.81,14.54,4.83,29.27,9.02,44.03,1.35,4.82,2.83,9.65,4.46,14.47-4.58,2.14-9.11,4.36-13.6,6.64-1.65-4.83-3.17-9.66-4.58-14.49-4.03-13.82-7.09-27.63-9.16-41.33-.84-5.57-1.52-11.12-2.03-16.64-.26-2.81-.48-5.62-.65-8.42-2.91-47.5,6.82-95.86,28.93-143.75,21.58-46.75,53.9-90.81,96.06-130.98,23.89-22.75,50.43-43.7,79.17-62.56,1.83-1.21,3.68-2.4,5.53-3.59,2.95-1.89,5.92-3.76,8.92-5.61,2.11-1.3,4.24-2.59,6.37-3.87Z"/><path class="cls-1" d="M1071.04,487.38l-.61,5.53c-1.56-.17-3.12-.34-4.68-.5l5.29-5.03Z"/><path class="cls-1" d="M1140.62,1218.73l-54.13,66.05-66.06-54.13,9.51-11.6,44.42,36.4c-35.1-215.83-115.74-388.98-239.83-514.93,4.49-2.67,8.96-5.24,13.43-7.72,125.53,128.75,206.85,305.02,241.85,524.26l39.21-47.84,11.6,9.51Z"/><path class="cls-1" d="M847.96,732.8c-4.47,2.48-8.94,5.05-13.43,7.72-1.65-1.69-3.33-3.38-5.01-5.05-1.97-1.97-3.96-3.92-5.96-5.87-58.82-57.21-127.74-104.84-205.25-141.89-2.21-1.05-4.42-2.1-6.64-3.13-3.17-1.49-6.35-2.95-9.55-4.4-1.97-.89-3.94-1.77-5.92-2.64-.21-.1-.43-.2-.64-.29-63.31-27.98-133.07-49.58-208.32-64.56-33.11-6.59-67.29-11.9-102.45-15.9l1.7-14.91c44.68,5.09,87.81,12.26,129.22,21.48,63.85,14.2,123.61,33.27,178.71,57.03h.01c2.41,1.04,4.8,2.09,7.19,3.14,2.93,1.3,5.85,2.6,8.76,3.93,2.35,1.07,4.7,2.15,7.03,3.24,5.47,2.55,10.9,5.15,16.29,7.8,76.66,37.75,144.9,85.83,203.28,143.27,1.04,1.01,2.08,2.04,3.12,3.07,2.64,2.63,5.27,5.29,7.86,7.96Z"/><path class="cls-1" d="M317.72,749.16c-18.03,23.42-42.65,39.68-71.19,47.02-11.69,3.01-23.82,4.51-36.33,4.51-17.09,0-34.89-2.79-53.29-8.38l34.61,42.48-11.63,9.47-53.94-66.21,66.21-53.94,9.47,11.63-48.54,39.55c32.3,11.24,62.45,13.38,89.71,6.37,25.26-6.5,47.06-20.91,63.04-41.65,34.62-44.95,35.39-109.24,1.88-156.35l12.22-8.69c37.31,52.43,36.39,124.06-2.22,174.19Z"/><path class="cls-1" d="M1129.63,988.22l-7.41,13.04c-13.68-7.78-79.62-55.58-128.86-131.24-28.89-44.4-47.16-90.69-54.28-137.57-1.96-12.93-3.07-25.9-3.34-38.91-.11-5.29-.08-10.59.11-15.89,1.14-35.41,8.55-71,22.18-106.39l-44.29,36.3-9.51-11.6,66.05-54.14,54.13,66.05-11.6,9.51-38.38-46.84c-13.82,34.01-21.62,68.2-23.36,102.2-.28,5.28-.41,10.55-.39,15.82.06,13.93,1.13,27.82,3.23,41.64,6.8,44.75,24.3,89.04,52.03,131.64,25.73,39.54,55.64,70.24,76.2,89.02,22.68,20.73,41.79,34.12,47.49,37.36Z"/><polygon class="cls-1" points="127.54 1364.13 89.33 1287.76 102.75 1281.04 134.24 1344.01 197.21 1312.51 203.92 1325.93 127.54 1364.13"/><path class="cls-1" d="M1033.82,425.64l-10.88,10.33,38.91,40.97c-52.76-5.14-105.49-5.07-156.9.22-51.92,5.34-102.77,16.03-151.14,31.76-48.68,15.82-94.59,36.67-136.4,61.78,5.47,2.55,10.9,5.15,16.29,7.8,38.52-22.27,80.45-40.91,124.75-55.32,47.36-15.4,97.17-25.87,148.03-31.1,52.16-5.36,105.71-5.25,159.26.33l-45.37,43.09,10.33,10.87,61.93-58.8-58.81-61.93ZM1071.04,487.38l-.61,5.53c-1.56-.17-3.12-.34-4.68-.5l5.29-5.03.08-.68.3.32-.38.36Z"/><path class="cls-1" d="M1071.04,487.38l-.61,5.53c-1.56-.17-3.12-.34-4.68-.5l5.29-5.03Z"/></svg>