<?xml version="1.0" encoding="UTF-8"?>
<svg id="Poster" xmlns="http://www.w3.org/2000/svg" viewBox="0 0 1190.55 1683.78">
  <defs>
    <style>
      .cls-1 {
        fill: none;
        stroke: #1e1e1e;
        stroke-miterlimit: 10;
        stroke-width: 15px;
      }

      .cls-2 {
        fill: #1e1e1e;
        stroke-width: 0px;
      }
    </style>
  </defs>
  <g id="Poster_var1">
    <g>
      <path class="cls-2" d="M295.25,1496.8v-87.72h79.75v102.08c0,18.08-3.35,33.45-10.05,46.09-6.7,12.66-16,23.08-27.91,31.26-11.91,8.19-25.63,14.51-41.15,18.98-15.53,4.47-32.17,7.6-49.92,9.41-17.76,1.8-35.78,2.71-54.07,2.71-19.35,0-38.07-.91-56.14-2.71-18.08-1.81-34.83-4.95-50.24-9.41-15.42-4.47-28.87-10.79-40.35-18.98-11.48-8.18-20.47-18.61-26.96-31.26-6.49-12.65-9.73-28.02-9.73-46.09v-102.08h79.75v87.72c0,17.02,4.15,29.99,12.44,38.92,8.29,8.93,20.15,15.05,35.57,18.34,15.42,3.3,33.97,4.94,55.67,4.94s39.34-1.64,54.87-4.94c15.52-3.29,27.48-9.41,35.89-18.34,8.4-8.93,12.6-21.9,12.6-38.92Z"/>
      <path class="cls-2" d="M847.11,1443.25v169.98h-79.75v-139.08l23.93,9.89-126,129.19h-95.7l-126.32-128.88,24.24-9.89v138.76h-79.75v-204.16h79.75l173.53,179.91h-47.85l143.32-148.04"/>
      <path class="cls-2" d="M916.51,1409.07h264.9v60.61h-241.8v25.52h197.78v31.9h-197.78v25.52h242.44v60.61h-322.19v-171.75"/>
    </g>
    <g>
      <path class="cls-2" d="M156.98,320.88L10.99,80.08h106.1l124.54,231.4h-38.38l124.54-231.4h104.6l-144.48,240.8h-130.94Z"/>
      <path class="cls-2" d="M626.17,328.41c-3.86,0-7.67-.02-11.42-.07-49.43-.63,15.4-5.91-83.9-23.97-19.4-3.53-71.69-2.9-84.77-11.37-9.96-6.45-18.22-13.77-24.78-21.96-15.18-18.94-22.76-42.45-22.76-70.55s7.58-51.61,22.76-70.55c15.17-18.94,39.44-33.23,72.81-42.89,33.36-9.65,77.38-14.49,132.07-14.49s98.7,4.83,132.07,14.49c33.36,9.66,57.62,23.96,72.8,42.89,15.17,18.94,22.76,42.46,22.76,70.55s-7.59,51.61-22.76,70.55c-15.18,18.94-39.45,33.24-72.8,42.89-33.36,9.65-77.38,14.49-132.07,14.49ZM626.17,256.92c25.83,0,48.16-1.56,66.97-4.7,18.81-3.13,33.36-8.78,43.64-16.93,10.28-8.15,15.43-19.75,15.43-34.8s-5.14-26.65-15.43-34.8c-10.29-8.15-24.83-13.79-43.64-16.93-18.81-3.13-41.14-4.7-66.97-4.7s-48.48,1.57-67.91,4.7c-19.44,3.14-34.62,8.78-45.53,16.93-10.91,8.15-16.37,19.75-16.37,34.8s5.46,26.66,16.37,34.8c10.91,8.15,26.09,13.8,45.53,16.93,19.44,3.14,42.08,4.7,67.91,4.7Z"/>
      <path class="cls-2" d="M959.15,80.08v169.31h219.36v71.49h-313.42V80.08h94.06Z"/>
    </g>
    <g>
      <path class="cls-1" d="M454.75,796.78c-117.27-127.99,32.36-289.15,197.36-191.38"/>
      <path class="cls-1" d="M740.14,958.59c106.19-139.99-57.02-297.65-244.5-173.12"/>
      <path class="cls-1" d="M126.58,980.93c-160.44,210.61,88.98,339.01,241.01,218.98"/>
      <path class="cls-1" d="M432.99,869.85c-95.66,3.14-142.28-116.22-19.92-146.2"/>
      <path class="cls-1" d="M854.53,412.38c143.24-89.2,301.07,56.65,136.76,211.39"/>
      <path class="cls-1" d="M999.09,1284.47c2.25,149.95-239.7,218.01-348.79,100.27"/>
      <path class="cls-1" d="M212.51,1301.74c-68.5,59.96-149.04,30.07-131.75-65.51"/>
      <path class="cls-1" d="M1046.58,442.51c90.87-5.86,154,85.01,96.03,164.81"/>
      <path class="cls-1" d="M615.28,1195.16c-45.4,142.99-269.12,140.32-254.34-58.11"/>
      <path class="cls-1" d="M61.12,871.28c76.52,16.54,210.17-17.08,236.66-76.18"/>
      <polyline class="cls-1" points="110.32 931.68 61.12 871.28 121.51 822.08"/>
      <path class="cls-1" d="M595.28,1401.94c-209.07-233.18-84.72-791.49,506.96-685.92"/>
      <polyline class="cls-1" points="1059.37 661.37 1113.01 717.86 1056.52 771.5"/>
      <path class="cls-1" d="M196.3,460.67c-48.21,93.44-51.23,182.98-54.39,196.35"/>
      <path class="cls-1" d="M397.15,304.36c-25.13,4.87-46.29,12.15-70.94,24.04-46.39,22.38-82.72,56.95-108.52,94.43"/>
      <path class="cls-1" d="M786.07,457.69c-36.15-68.18-206.91-188.56-380.68-154.92"/>
      <polyline class="cls-1" points="717.65 465.14 795.52 463.05 793.43 385.18"/>
      <polyline class="cls-1" points="701.42 1156.19 919.45 1330.92 814.65 1074.88 1137.48 1145.28 836.7 954.05 1116.42 895.61 810.71 827.83"/>
      <line class="cls-1" x1="929.53" y1="1156.71" x2="1143.44" y2="1366.5"/>
      <polyline class="cls-1" points="174.89 767.48 41.03 636.73 341.34 684.1 155.25 391.92 372.02 522.32 395.21 276.77 516.94 492.18"/>
      <line class="cls-1" x1="872.93" y1="504.38" x2="713.35" y2="646.3"/>
      <line class="cls-1" x1="367.59" y1="1311.9" x2="228.09" y2="1405.35"/>
      <line class="cls-1" x1="412.91" y1="958.59" x2="165.69" y2="1061.47"/>
    </g>
  </g>
</svg>