<?xml version="1.0" encoding="UTF-8"?>
<svg id="Poster" xmlns="http://www.w3.org/2000/svg" viewBox="0 0 1190.55 1683.78">
  <defs>
    <style>
      .cls-1 {
        fill: none;
        stroke: #1e1e1e;
        stroke-miterlimit: 10;
        stroke-width: 15px;
      }

      .cls-2 {
        font-size: 376.26px;
      }

      .cls-2, .cls-3 {
        fill: #1e1e1e;
        font-family: Syne-ExtraBold, Syne;
        font-weight: 700;
      }

      .cls-4 {
        letter-spacing: -.17em;
      }

      .cls-3 {
        font-size: 319px;
        letter-spacing: -.1em;
      }

      .cls-5 {
        letter-spacing: -.1em;
      }
    </style>
  </defs>
  <g id="Poster_var1">
    <text class="cls-3" transform="translate(-13.86 1613.23)"><tspan x="0" y="0">UME</tspan></text>
    <text class="cls-2" transform="translate(3.47 320.88)"><tspan class="cls-4" x="0" y="0">V</tspan><tspan class="cls-5" x="372.49" y="0">OL</tspan></text>
    <g>
      <path class="cls-1" d="M454.75,796.78c-117.27-127.99,32.36-289.15,197.36-191.38"/>
      <path class="cls-1" d="M740.14,958.59c106.19-139.99-57.02-297.65-244.5-173.12"/>
      <path class="cls-1" d="M126.58,980.93c-160.44,210.61,88.98,339.01,241.01,218.98"/>
      <path class="cls-1" d="M432.99,869.85c-95.66,3.14-142.28-116.22-19.92-146.2"/>
      <path class="cls-1" d="M854.53,412.38c143.24-89.2,301.07,56.65,136.76,211.39"/>
      <path class="cls-1" d="M999.09,1284.47c2.25,149.95-239.7,218.01-348.79,100.27"/>
      <path class="cls-1" d="M430.42,438.82c47.87-125.82,223.26-92.13,218.46,53.36"/>
      <path class="cls-1" d="M212.51,1301.74c-68.5,59.96-149.04,30.07-131.75-65.51"/>
      <path class="cls-1" d="M1046.58,442.51c90.87-5.86,154,85.01,96.03,164.81"/>
      <path class="cls-1" d="M615.28,1195.16c-45.4,142.99-269.12,140.32-254.34-58.11"/>
      <path class="cls-1" d="M61.12,871.28c76.52,16.54,210.17-17.08,236.66-76.18"/>
      <polyline class="cls-1" points="110.32 931.68 61.12 871.28 121.51 822.08"/>
      <path class="cls-1" d="M595.28,1401.94c-209.07-233.18-84.72-791.49,506.96-685.92"/>
      <polyline class="cls-1" points="1059.37 661.37 1113.01 717.86 1056.52 771.5"/>
      <path class="cls-1" d="M786.07,457.69c-41.38-78.04-264.74-223.42-459.87-129.29-172.22,83.08-181.12,320.14-186.06,341.03"/>
      <polyline class="cls-1" points="717.65 465.14 795.52 463.05 793.43 385.18"/>
      <polyline class="cls-1" points="701.42 1156.19 919.45 1330.92 814.65 1074.88 1137.48 1145.28 836.7 954.05 1116.42 895.61 810.71 827.83"/>
      <line class="cls-1" x1="929.53" y1="1156.71" x2="1143.44" y2="1366.5"/>
      <polyline class="cls-1" points="174.89 767.48 41.03 636.73 341.34 684.1 155.25 391.92 372.02 522.32 395.21 276.77 516.94 492.18"/>
      <line class="cls-1" x1="872.93" y1="504.38" x2="713.35" y2="646.3"/>
      <line class="cls-1" x1="367.59" y1="1311.9" x2="228.09" y2="1405.35"/>
      <line class="cls-1" x1="412.91" y1="958.59" x2="165.69" y2="1061.47"/>
    </g>
  </g>
</svg>