<?xml version="1.0" encoding="UTF-8"?><svg id="Major" xmlns="http://www.w3.org/2000/svg" viewBox="0 0 1190.55 1683.78"><defs><style>.cls-1{fill:#1e1e1e;stroke-width:0px;}</style></defs><g id="Poster_var1"><path class="cls-1" d="M295.25,1496.8v-87.72h79.75v102.08c0,18.08-3.35,33.45-10.05,46.09-6.7,12.66-16,23.08-27.91,31.26-11.91,8.19-25.63,14.51-41.15,18.98-15.53,4.47-32.17,7.6-49.92,9.41-17.76,1.8-35.78,2.71-54.07,2.71-19.35,0-38.07-.91-56.14-2.71-18.08-1.81-34.83-4.95-50.24-9.41-15.42-4.47-28.87-10.79-40.35-18.98-11.48-8.18-20.47-18.61-26.96-31.26-6.49-12.65-9.73-28.02-9.73-46.09v-102.08h79.75v87.72c0,17.02,4.15,29.99,12.44,38.92,8.29,8.93,20.15,15.05,35.57,18.34,15.42,3.3,33.97,4.94,55.67,4.94s39.34-1.64,54.87-4.94c15.52-3.29,27.48-9.41,35.89-18.34,8.4-8.93,12.6-21.9,12.6-38.92Z"/><path class="cls-1" d="M939.61,1552.62v-25.52h197.78v-31.9h-197.78v-25.52h241.8v-60.61h-305.12l-127.94-282.34-6.84,3.1-6.83,3.1,161.2,355.71-284.34-355.91-135.22,285.48-8.99,18.97-1.13-28.11-10.58-263.87-249.91,281.2,172.49-352.55-302.54,106.69,151.71-249.45-6.4-3.89h0s-6.4-3.91-6.4-3.91l-173.56,285.38,307.61-108.48-204.63,418.26,298.14-335.49,9.07,226.11h-63.44v204.16h79.75v-104.14l102.08,104.14h95.7l102.07-104.66v104.66h79.75v-161.62l12.76,15.97v145.65h322.19v-60.61h-242.44ZM767.35,1409.07l-150.2,155.15-129.7-134.47,127.36-268.89,198.3,248.21h-45.76Z"/><path class="cls-1" d="M156.98,320.88L10.99,80.08h106.1l124.54,231.4h-38.38l124.54-231.4h104.6l-144.48,240.8h-130.94Z"/><path class="cls-1" d="M983.04,320.88l-217.67,109.82-18.87-113.7c4.05-.96,7.96-1.99,11.73-3.08,33.36-9.66,57.62-23.95,72.8-42.9,15.18-18.93,22.77-42.45,22.77-70.55s-7.59-51.6-22.77-70.54c-15.18-18.94-39.44-33.24-72.8-42.9-33.36-9.65-77.39-14.48-132.07-14.48s-98.71,4.83-132.06,14.48c-33.37,9.66-57.63,23.96-72.81,42.9s-22.76,42.45-22.76,70.54,7.58,51.62,22.76,70.55c10.37,12.94,24.98,23.71,43.83,32.31l-12.16,128.7-164.25-57.65,125.86,219.83-355.75-56.11,198.97,155.25,4.63-5.93,4.6-5.89-153.25-119.58,329.36,51.95-121.4-212.03,144.36,50.66,20.99-222.16,66.04,179.95,7.05-2.58h0s7.04-2.59,7.04-2.59l-30.2-82.28c25.64,3.69,55.36,5.53,89.15,5.53,16.43,0,31.9-.44,46.4-1.32l-73.33,216.66,7.11,2.4,7.1,2.4.46-1.35,74.89-221.29,26.86-79.34,2.65-7.84,1.07,6.43,12.44,74.98,22.1,133.15,262.42-132.4,21.09-10.64-10.1,10.64-234.17,246.75,5.44,5.17,5.44,5.16,243.98-257.08,59.68-62.89-124.65,62.89ZM736.78,235.28c-1.09.87-2.24,1.71-3.43,2.52l-10.06-60.62-25.08,74.1c-1.66.33-3.35.64-5.07.93-18.82,3.14-41.15,4.7-66.98,4.7s-48.48-1.56-67.91-4.7c-19.44-3.13-34.62-8.78-45.53-16.93-10.91-8.15-16.37-19.76-16.37-34.81s5.46-26.64,16.37-34.8c10.91-8.15,26.09-13.79,45.53-16.93,19.43-3.13,42.07-4.7,67.91-4.7s48.16,1.57,66.98,4.7c18.81,3.14,33.35,8.78,43.64,16.93,10.28,8.16,15.43,19.75,15.43,34.8s-5.15,26.66-15.43,34.81Z"/><path class="cls-1" d="M959.14,249.39V80.07h-94.06v240.81h117.96l124.65-62.89-59.68,62.89h130.49v-71.49h-219.36Z"/></g><polygon class="cls-1" points="941.35 1552.62 939.61 1552.62 939.61 1548.79 941.35 1552.62"/><polygon class="cls-1" points="1015.72 1329.4 782.12 1172.08 790.5 1159.64 967.3 1278.71 820.13 1036.96 1116.99 1101.69 827.72 923.7 1088.59 869.2 759.38 808.34 762.11 793.59 1166.24 868.3 867.68 930.68 1199.97 1135.14 851.16 1059.08 1015.72 1329.4"/><polygon class="cls-1" points="878.71 791.55 873.67 777.42 1078.74 704.19 865.16 690.58 1113.13 537.48 861.28 575.96 859.01 561.13 1183.74 511.52 913.11 678.6 1152.31 693.85 878.71 791.55"/><polygon class="cls-1" points="346.66 934.12 21.69 799.12 374.22 750.88 376.26 765.74 78.52 806.49 352.42 920.27 346.66 934.12"/><path class="cls-1" d="M719.37,245.15c-1.21.49-2.45.96-3.72,1.41l2.65-7.84,1.07,6.43Z"/><rect class="cls-1" x="1033.98" y="1072.93" width="15" height="299.62" transform="translate(-560.73 1110.12) rotate(-45.56)"/><rect class="cls-1" x="1061.63" y="864.56" width="15" height="180.89" transform="translate(-40.37 1862.8) rotate(-81.06)"/><rect class="cls-1" x="979.78" y="776.99" width="135.75" height="15"/><rect class="cls-1" x="926.76" y="438.54" width="196.54" height="15" transform="translate(-92.79 434.79) rotate(-22.94)"/><rect class="cls-1" x="188.64" y="262.95" width="15" height="343.09" transform="translate(-276.66 373.48) rotate(-58.35)"/><rect class="cls-1" x="123.4" y="608.36" width="15" height="181.33" transform="translate(-579.12 739.6) rotate(-82.66)"/><rect class="cls-1" x="57.86" y="912.56" width="107.9" height="15" transform="translate(-120.67 22.86) rotate(-7.6)"/><rect class="cls-1" x="77.44" y="1228.61" width="213.56" height="15" transform="translate(-774.86 434.82) rotate(-41.65)"/><rect class="cls-1" x="638.2" y="1245.14" width="15" height="183.45" transform="translate(-351.19 236.71) rotate(-16.4)"/></svg>